<svg width="57" height="57" viewBox="0 0 57 57" fill="none" xmlns="http://www.w3.org/2000/svg">
<g id="1161953_instagram_icon 1">
<g id="Group">
<path id="Vector" d="M28.2 16.6997C21.2 16.6997 15.4 22.3997 15.4 29.4997C15.4 36.5997 21.1 42.2997 28.2 42.2997C35.3 42.2997 41 36.4997 41 29.4997C41 22.4997 35.2 16.6997 28.2 16.6997ZM28.2 37.6997C23.7 37.6997 20 33.9997 20 29.4997C20 24.9997 23.7 21.2997 28.2 21.2997C32.7 21.2997 36.4 24.9997 36.4 29.4997C36.4 33.9997 32.7 37.6997 28.2 37.6997Z" fill="black"/>
<path id="Vector_2" d="M41.5 19.3C43.1016 19.3 44.4 18.0016 44.4 16.4C44.4 14.7984 43.1016 13.5 41.5 13.5C39.8984 13.5 38.6 14.7984 38.6 16.4C38.6 18.0016 39.8984 19.3 41.5 19.3Z" fill="black"/>
<path id="Vector_3" d="M49 8.8998C46.4 6.1998 42.7 4.7998 38.5 4.7998H17.9C9.20002 4.7998 3.40002 10.5998 3.40002 19.2998V39.7998C3.40002 44.0998 4.80002 47.7998 7.60002 50.4998C10.3 53.0998 13.9 54.3998 18 54.3998H38.4C42.7 54.3998 46.3 52.9998 48.9 50.4998C51.6 47.8998 53 44.1998 53 39.8998V19.2998C53 15.0998 51.6 11.4998 49 8.8998ZM48.6 39.8998C48.6 42.9998 47.5 45.4998 45.7 47.1998C43.9 48.8998 41.4 49.7998 38.4 49.7998H18C15 49.7998 12.5 48.8998 10.7 47.1998C8.90002 45.3998 8.00002 42.8998 8.00002 39.7998V19.2998C8.00002 16.2998 8.90002 13.7998 10.7 11.9998C12.4 10.2998 15 9.3998 18 9.3998H38.6C41.6 9.3998 44.1 10.2998 45.9 12.0998C47.6 13.8998 48.6 16.3998 48.6 19.2998V39.8998Z" fill="black"/>
</g>
</g>
</svg>
