<svg width="82" height="71" viewBox="0 0 82 71" fill="none" xmlns="http://www.w3.org/2000/svg">
<path d="M56.2908 52.6463C51.762 52.6461 48.0566 49.6043 47.7676 45.7589L47.7506 45.1494C47.7838 34.6686 51.9887 25.6491 60.4083 17.9549C61.38 17.0668 63.0018 17.0267 64.0307 17.8654C65.0596 18.704 65.106 20.1038 64.1343 20.9916C58.5287 26.1146 55.0447 31.825 53.6185 38.2682C54.4618 38.0315 55.3591 37.9026 56.2914 37.9026C61.0088 37.9028 64.8329 41.2033 64.8328 45.2747C64.8326 49.346 61.0082 52.6464 56.2908 52.6463ZM25.5408 52.6455C21.012 52.6454 17.3067 49.6035 17.0175 45.7582L17.0004 45.1486C17.0336 34.6495 21.2283 25.6468 29.6596 17.953C30.632 17.0654 32.2539 17.0265 33.2819 17.8658C34.3103 18.705 34.3553 20.1048 33.3829 20.992C27.7685 26.1156 24.288 31.8183 22.8654 38.2668C23.7117 38.0307 24.6089 37.9018 25.5413 37.9019C30.2587 37.902 34.0829 41.2026 34.0827 45.2739C34.0826 49.3452 30.2582 52.6456 25.5408 52.6455Z" fill="#212121"/>
</svg>
